<?xml version="1.0" standalone="no"?>
<!DOCTYPE svg PUBLIC "-//W3C//DTD SVG 20010904//EN"
 "http://www.w3.org/TR/2001/REC-SVG-20010904/DTD/svg10.dtd">
<svg version="1.0" xmlns="http://www.w3.org/2000/svg"
 width="200.000000pt" height="200.000000pt" viewBox="0 0 200.000000 200.000000"
 preserveAspectRatio="xMidYMid meet">
<metadata>
Created by potrace 1.16, written by Peter Selinger 2001-2019
</metadata>
<g transform="translate(0.000000,200.000000) scale(0.100000,-0.100000)"
fill="#000000" stroke="none">
<path d="M100 685 l0 -115 90 0 c89 0 90 0 90 25 0 24 -3 25 -60 25 -53 0 -60
2 -60 20 0 17 7 20 50 20 47 0 50 2 50 25 0 23 -3 25 -50 25 -43 0 -50 3 -50
20 0 18 7 20 55 20 52 0 55 1 55 25 0 25 -1 25 -85 25 l-85 0 0 -115z"/>
<path d="M790 760 c0 -11 -7 -20 -15 -20 -8 0 -15 -4 -15 -9 0 -6 -12 -3 -27
5 -103 53 -202 -72 -117 -148 30 -26 67 -31 108 -14 40 17 47 40 16 56 -16 9
-24 7 -36 -5 -11 -11 -20 -12 -34 -5 -28 15 -33 41 -11 63 18 19 21 19 44 4
15 -10 29 -12 38 -6 34 21 49 11 49 -34 0 -57 17 -79 63 -80 20 0 39 2 43 5
12 12 -7 49 -24 46 -13 -2 -18 6 -20 35 -3 32 0 37 17 37 16 0 21 6 21 25 0
18 -5 25 -20 25 -13 0 -20 7 -20 20 0 16 -7 20 -30 20 -23 0 -30 -4 -30 -20z"/>
<path d="M441 739 c-36 -14 -50 -39 -51 -85 0 -57 33 -87 95 -87 58 0 89 24
63 49 -12 13 -20 14 -37 5 -16 -9 -26 -9 -43 1 -21 12 -17 13 40 16 60 3 62 4
62 30 -1 34 -19 58 -54 72 -32 12 -43 12 -75 -1z"/>
<path d="M1089 735 c-64 -35 -62 -126 5 -159 77 -38 157 19 141 101 -11 60
-87 90 -146 58z"/>
<path d="M1308 743 l-48 -4 0 -85 0 -84 30 0 c28 0 29 1 32 58 3 54 4 57 31
60 27 3 27 3 27 -57 l0 -61 30 0 30 0 0 68 c0 39 -5 75 -12 85 -15 19 -53 26
-120 20z"/>
<path d="M1623 743 c-32 -6 -63 -50 -63 -87 0 -80 101 -123 163 -68 23 20 22
27 -7 40 -19 9 -27 8 -36 -4 -16 -18 -25 -18 -44 2 -22 22 -20 51 5 65 17 9
25 8 36 -4 12 -12 21 -13 39 -5 13 6 24 14 24 17 -1 15 -18 31 -43 40 -29 11
-35 12 -74 4z"/>
<path d="M1780 738 c-28 -15 -39 -60 -20 -83 7 -8 27 -17 46 -21 19 -3 34 -10
34 -15 0 -12 -22 -11 -54 1 -21 8 -27 6 -37 -12 -17 -32 15 -45 96 -39 40 4
55 18 55 51 0 33 -16 48 -58 56 -47 9 -40 28 7 20 31 -5 40 -2 45 11 4 9 3 20
-2 25 -16 16 -86 19 -112 6z"/>
</g>
</svg>
